<?xml version="1.0" encoding="UTF-8" standalone="no"?>
<svg
   xmlns:dc="http://purl.org/dc/elements/1.1/"
   xmlns:cc="http://creativecommons.org/ns#"
   xmlns:rdf="http://www.w3.org/1999/02/22-rdf-syntax-ns#"
   xmlns:svg="http://www.w3.org/2000/svg"
   xmlns="http://www.w3.org/2000/svg"
   id="svg8"
   version="1.1"
   viewBox="0 0 492.69214 328.4613"
   height="328.4613mm"
   width="492.69214mm">
  <defs
     id="defs2" />
  <metadata
     id="metadata5">
    <rdf:RDF>
      <cc:Work
         rdf:about="">
        <dc:format>image/svg+xml</dc:format>
        <dc:type
           rdf:resource="http://purl.org/dc/dcmitype/StillImage" />
        <dc:title></dc:title>
      </cc:Work>
    </rdf:RDF>
  </metadata>
  <g
     transform="translate(133.61049,0.25170138)"
     id="layer1">
    <path
       id="rect4594"
       d="M -133.50466,-0.26058045 H 60.76207 l 0,340.04816045 H -44.771175 Z"
       style="opacity:1;vector-effect:none;fill:#f9f9f9;fill-opacity:1;stroke:none;stroke-width:0.26920962;stroke-linecap:butt;stroke-linejoin:miter;stroke-miterlimit:4;stroke-dasharray:none;stroke-dashoffset:0;stroke-opacity:1"
       transform="matrix(1,0,-0.25881905,0.96592583,0,0)" />
    <path
       id="rect4594-5"
       d="M 60.762066,-0.26057881 H 211.19659 V 339.78758 H 60.762066 Z"
       style="opacity:1;vector-effect:none;fill:#f9f9f9;fill-opacity:1;stroke:none;stroke-width:0.26920962;stroke-linecap:butt;stroke-linejoin:miter;stroke-miterlimit:4;stroke-dasharray:none;stroke-dashoffset:0;stroke-opacity:1"
       transform="matrix(1,0,-0.25881905,0.96592583,0,0)" />
    <path
       id="rect4594-5-9"
       d="M 211.19659,-0.26057881 H 361.63112 V 339.78758 H 211.19659 Z"
       style="opacity:1;vector-effect:none;fill:#f9f9f9;fill-opacity:1;stroke:none;stroke-width:0.26920962;stroke-linecap:butt;stroke-linejoin:miter;stroke-miterlimit:4;stroke-dasharray:none;stroke-dashoffset:0;stroke-opacity:1"
       transform="matrix(1,0,-0.25881905,0.96592583,0,0)" />
    <path
       id="rect4594-5-9-1"
       d="m 361.6311,-0.26057881 v 0 L 448.45548,339.78758 H 361.6311 Z"
       style="opacity:1;vector-effect:none;fill:#f9f9f9;fill-opacity:1;stroke:none;stroke-width:0.26920962;stroke-linecap:butt;stroke-linejoin:miter;stroke-miterlimit:4;stroke-dasharray:none;stroke-dashoffset:0;stroke-opacity:1"
       transform="matrix(1,0,-0.25881905,0.96592583,0,0)" />
    <path
       id="rect4576"
       d="M -1.5002731,43.391687 H 261.88036 c 1.85084,0 3.34087,1.171057 3.34087,2.625687 0,1.454631 -1.49003,2.625688 -3.34087,2.625688 H -1.5002731 c -1.850842,0 -3.34087,-1.171057 -3.34087,-2.625688 0,-1.45463 1.490028,-2.625687 3.34087,-2.625687 z"
       style="opacity:1;vector-effect:none;fill:#b2b2b3;fill-opacity:1;stroke:none;stroke-width:7.9375;stroke-linecap:butt;stroke-linejoin:miter;stroke-miterlimit:4;stroke-dasharray:none;stroke-dashoffset:0;stroke-opacity:1" />
    <path
       id="rect4485"
       d="m 70.73683,22.304816 c -4.755732,0 -8.584488,4.603681 -8.584488,10.32185 v 23.965651 c 0,5.718167 3.828756,10.321851 8.584488,10.321851 h 19.570382 c 3.646522,0 7.994346,-3.373437 7.994346,-3.373437 h 49.348082 c 0,0 4.34733,3.373437 7.99382,3.373437 h 21.68705 c 4.75573,0 8.58449,-4.603684 8.58449,-10.321851 V 32.626666 c 0,-5.718169 -3.82876,-10.32185 -8.58449,-10.32185 h -21.68705 c -3.77214,0 -8.1163,3.773929 -8.1163,3.773929 H 98.424031 c 0,0 -4.344599,-3.773929 -8.116819,-3.773929 z"
       style="opacity:1;vector-effect:none;fill:#dac9ae;fill-opacity:1;stroke:none;stroke-width:7.9375;stroke-linecap:butt;stroke-linejoin:miter;stroke-miterlimit:4;stroke-dasharray:none;stroke-dashoffset:0;stroke-opacity:1" />
    <rect
       ry="0"
       rx="0"
       y="22.304823"
       x="77.050888"
       height="44.5644"
       width="11.966142"
       id="rect4530"
       style="opacity:1;vector-effect:none;fill:#3e2715;fill-opacity:1;stroke:none;stroke-width:7.93749952;stroke-linecap:butt;stroke-linejoin:miter;stroke-miterlimit:4;stroke-dasharray:none;stroke-dashoffset:0;stroke-opacity:1" />
    <rect
       ry="0"
       rx="0"
       y="26.078733"
       x="98.093033"
       height="37.461983"
       width="11.966142"
       id="rect4530-7"
       style="opacity:1;vector-effect:none;fill:#000000;fill-opacity:1;stroke:none;stroke-width:7.93749952;stroke-linecap:butt;stroke-linejoin:miter;stroke-miterlimit:4;stroke-dasharray:none;stroke-dashoffset:0;stroke-opacity:1" />
    <rect
       ry="0"
       rx="0"
       y="26.078733"
       x="117.92078"
       height="37.461983"
       width="11.966142"
       id="rect4530-7-7"
       style="opacity:1;vector-effect:none;fill:#c88e12;fill-opacity:1;stroke:none;stroke-width:7.93749952;stroke-linecap:butt;stroke-linejoin:miter;stroke-miterlimit:4;stroke-dasharray:none;stroke-dashoffset:0;stroke-opacity:1" />
    <rect
       ry="0"
       rx="0"
       y="22.304892"
       x="165.39787"
       height="44.609203"
       width="11.966142"
       id="rect4530-7-7-8"
       style="opacity:1;vector-effect:none;fill:#c88e12;fill-opacity:1;stroke:none;stroke-width:7.93749952;stroke-linecap:butt;stroke-linejoin:miter;stroke-miterlimit:4;stroke-dasharray:none;stroke-dashoffset:0;stroke-opacity:1" />
    <path
       id="rect4485-4"
       d="m 62.152342,52.422862 v 4.14239 c 0,5.71816 3.828757,10.32185 8.584489,10.32185 h 19.570382 c 3.646522,0 7.994345,-3.37344 7.994345,-3.37344 h 49.347882 c 0,0 4.34733,3.37344 7.99383,3.37344 h 21.68704 c 4.75573,0 8.58449,-4.60369 8.58449,-10.32185 v -4.14239 c 0,5.71816 -3.82876,10.32185 -8.58449,10.32185 h -21.68704 c -3.6465,0 -7.99383,-3.37344 -7.99383,-3.37344 H 98.301558 c 0,0 -4.347823,3.37344 -7.994345,3.37344 H 70.736831 c -4.755732,0 -8.584489,-4.60369 -8.584489,-10.32185 z"
       style="opacity:1;vector-effect:none;fill:#b99a67;fill-opacity:0.60579678;stroke:none;stroke-width:7.9375;stroke-linecap:butt;stroke-linejoin:miter;stroke-miterlimit:4;stroke-dasharray:none;stroke-dashoffset:0;stroke-opacity:1" />
    <path
       id="rect4485-4-0"
       d="m 66.154378,38.186262 v -3.87449 c 0,-5.34835 3.58114,-9.65431 8.029305,-9.65431 h 18.30471 c 3.410691,0 7.477328,3.15527 7.477328,3.15527 h 46.156409 c 0,0 4.06618,-3.15527 7.47685,-3.15527 h 20.28448 c 4.44816,0 8.02931,4.30596 8.02931,9.65431 v 3.87449 c 0,-5.34835 -3.58115,-9.65431 -8.02931,-9.65431 h -20.28448 c -3.41067,0 -7.47685,3.15527 -7.47685,3.15527 H 99.965721 c 0,0 -4.066637,-3.15527 -7.477328,-3.15527 h -18.30471 c -4.448165,0 -8.029305,4.30596 -8.029305,9.65431 z"
       style="opacity:1;vector-effect:none;fill:#fcfaf8;fill-opacity:0.60579678;stroke:none;stroke-width:7.93750048;stroke-linecap:butt;stroke-linejoin:miter;stroke-miterlimit:4;stroke-dasharray:none;stroke-dashoffset:0;stroke-opacity:1" />
    
  </g>
</svg>
